<svg width="40" height="40" viewBox="0 0 40 40" fill="none" xmlns="http://www.w3.org/2000/svg">
<path d="M20 1.59998C9.84904 1.59998 1.59998 9.84904 1.59998 20C1.59998 30.1509 9.84904 38.4 20 38.4C30.1509 38.4 38.4 30.1509 38.4 20C38.4 9.84904 30.1509 1.59998 20 1.59998ZM20 3.19998C29.2858 3.19998 36.8 10.7141 36.8 20C36.8 20.0571 36.7959 20.1133 36.7953 20.1703C36.2836 20.1231 35.6924 20.0782 34.9406 20.0515C33.8776 20.0138 32.5378 20.0248 31.0187 20.1C31.0751 19.7077 31.1145 19.3099 31.1156 18.9015C31.1931 17.4034 30.69 16.0019 29.8719 14.764C30.0695 14.0811 30.3014 13.2122 30.3594 12.2265C30.4254 11.1031 30.3285 9.85739 29.4265 9.0156L29.1953 8.79998H28.8797C26.7332 8.79998 25.264 9.69854 24.3656 10.4109C23.0684 9.90879 21.6098 9.59998 20 9.59998C18.3811 9.59998 16.9084 9.91311 15.5578 10.414C14.6599 9.70133 13.1894 8.79998 11.0406 8.79998H10.7265L10.4953 9.01404C9.61674 9.82983 9.5358 11.0414 9.5906 12.1594C9.63893 13.1452 9.85736 14.0417 10.0515 14.7578C9.21957 16.0199 8.72029 17.4576 8.72029 18.8797C8.72029 19.289 8.75835 19.688 8.81404 20.0812C7.36943 20.0142 6.08166 20.0013 5.05935 20.0375C4.30759 20.0641 3.71633 20.1085 3.20466 20.1562C3.20419 20.104 3.19998 20.0524 3.19998 20C3.19998 10.7141 10.7141 3.19998 20 3.19998ZM11.5172 10.5047C13.1312 10.6576 14.3456 11.3784 14.9078 11.8781L15.2828 12.2094L15.7453 12.0203C17.0104 11.4993 18.4216 11.2 20 11.2C21.5784 11.2 22.9899 11.5008 24.1594 12.0125L24.6281 12.2187L25.0109 11.8781C25.5733 11.3782 26.7897 10.6572 28.4047 10.5047C28.6194 10.8606 28.806 11.3669 28.7609 12.1328C28.707 13.0494 28.4618 14.0477 28.2765 14.6406L28.1562 15.0265L28.3953 15.3531C29.1869 16.4325 29.5905 17.6007 29.5219 18.8359L29.5203 18.8578V18.8797C29.5203 20.876 28.8014 22.4738 27.2703 23.6578C25.7392 24.8417 23.3221 25.6 19.9203 25.6C16.5185 25.6 14.0998 24.8417 12.5687 23.6578C11.0376 22.4738 10.3203 20.876 10.3203 18.8797C10.3203 17.7079 10.7434 16.4189 11.525 15.3531L11.7594 15.0344L11.6469 14.6547C11.4615 14.0244 11.2342 13.0033 11.189 12.0812C11.1514 11.3143 11.333 10.8296 11.5172 10.5047ZM7.10779 20.8172C7.67314 20.8244 8.32114 20.8549 8.97029 20.8875C9.03231 21.1369 9.10303 21.3823 9.18904 21.6219C6.54315 21.6776 4.56376 21.9437 3.34373 22.1719C3.29214 21.7716 3.25105 21.368 3.2281 20.9594C4.12974 20.8738 5.40077 20.7954 7.10779 20.8172ZM32.8922 20.8297C34.598 20.808 35.8686 20.8865 36.7703 20.9719C36.7474 21.3746 36.707 21.7725 36.6562 22.1672C35.3926 21.9353 33.3597 21.6693 30.6453 21.6265C30.7295 21.3917 30.7997 21.1506 30.8609 20.9062C31.577 20.8678 32.2756 20.8375 32.8922 20.8297ZM9.52966 22.4156C10.0071 23.3722 10.6892 24.2264 11.5906 24.9234C12.823 25.8764 14.4253 26.5422 16.3812 26.8984C16.1253 27.1613 15.8926 27.4501 15.6859 27.7547L15.6375 27.7125C15.6419 27.7074 15.2398 27.9087 14.639 27.9625C14.0383 28.0163 13.2973 28 12.6406 28C11.6606 28 11.2289 27.5369 10.539 26.6937C10.157 26.1788 9.69126 25.7618 9.23904 25.4453C8.77599 25.1212 8.38098 24.8924 7.89216 24.8109L7.82654 24.8H7.75935C7.38602 24.8 7.02476 24.827 6.68748 25.2125C6.51883 25.4052 6.4026 25.762 6.4781 26.064C6.5536 26.3661 6.74466 26.5516 6.9156 26.6656C8.00898 27.3945 8.20221 28.8372 8.88748 30.1203C9.52741 31.3954 10.9085 32 12.3203 32H14.4V35.8422C8.77422 33.8564 4.53172 28.9637 3.4656 22.9625C4.69032 22.7318 6.74121 22.4545 9.52966 22.4156ZM30.3062 22.4219C33.1564 22.4462 35.2648 22.7232 36.5359 22.9578C35.4712 28.9612 31.2272 33.8559 25.6 35.8422V31.6797C25.6 30.412 25.1837 29.0141 24.4594 27.8484C24.2394 27.4945 23.9807 27.1598 23.6922 26.8594C25.5443 26.4934 27.0659 25.839 28.25 24.9234C29.1494 24.2279 29.83 23.3763 30.3062 22.4219ZM18.9594 27.2797H21.2C21.8502 27.2797 22.5443 27.7979 23.1 28.6922C23.6556 29.5864 24 30.7873 24 31.6797V36.3187C22.7179 36.6314 21.379 36.8 20 36.8C18.6209 36.8 17.282 36.6314 16 36.3187V31.6797C16 30.8071 16.3742 29.609 16.9672 28.7109C17.5601 27.8128 18.3091 27.2797 18.9594 27.2797ZM9.84685 28.225C10.5395 28.9434 11.378 29.6 12.6406 29.6C13.2639 29.6 14.042 29.6224 14.7812 29.5562C14.7839 29.556 14.7864 29.5549 14.789 29.5547C14.6916 29.8347 14.619 30.1164 14.5578 30.4H12.3203C11.3336 30.4 10.6366 30.0435 10.3156 29.4015L10.3094 29.3906L10.3047 29.3812C10.1731 29.1369 10.0005 28.6484 9.84685 28.225Z" fill="white"/>
</svg>
