<svg width="40" height="40" viewBox="0 0 40 40" fill="none" xmlns="http://www.w3.org/2000/svg">
<path d="M20 1.59998C9.84741 1.59998 1.59998 9.84741 1.59998 20C1.59998 30.1525 9.84741 38.4 20 38.4C30.1525 38.4 38.4 30.1525 38.4 20C38.4 9.84741 30.1525 1.59998 20 1.59998ZM20 3.19998C29.2878 3.19998 36.8 10.7121 36.8 20C36.8 29.2878 29.2878 36.8 20 36.8C10.7121 36.8 3.19998 29.2878 3.19998 20C3.19998 10.7121 10.7121 3.19998 20 3.19998ZM27.2703 11.2281C26.7231 11.2281 26.1082 11.3548 25.389 11.614C24.2722 12.0164 11.1366 17.5937 9.64216 18.2281C8.78776 18.5913 7.19685 19.2669 7.19685 20.8781C7.19685 21.9461 7.82266 22.71 9.05466 23.15C9.71706 23.386 11.2903 23.8628 12.2031 24.114C12.5903 24.2204 13.0018 24.275 13.425 24.275C14.253 24.275 15.0862 24.0687 15.739 23.7047C15.7334 23.8391 15.7371 23.9749 15.7531 24.1109C15.8515 24.9509 16.3695 25.741 17.1375 26.225C17.6399 26.5418 21.7434 29.2913 22.3562 29.7281C23.217 30.3433 24.1686 30.6687 25.1062 30.6687C26.8982 30.6687 27.4994 28.8185 27.789 27.9297C28.209 26.6393 29.7818 16.1457 29.9594 14.2953C30.0802 13.0273 29.5517 11.9831 28.5453 11.5015C28.1685 11.3199 27.7383 11.2281 27.2703 11.2281ZM27.2703 12.8281C27.4903 12.8281 27.6867 12.8645 27.8531 12.9453C28.2315 13.1269 28.424 13.5317 28.3656 14.1437C28.172 16.1621 26.6031 26.4072 26.2687 27.4344C25.9823 28.3128 25.6806 29.0687 25.1062 29.0687C24.5318 29.0687 23.9043 28.8674 23.2859 28.425C22.6675 27.9834 18.561 25.2295 17.9906 24.8703C17.4906 24.5551 16.9614 23.7694 17.7062 23.0094C18.3198 22.3838 22.9743 17.8663 23.3719 17.4687C23.6679 17.1719 23.5294 16.814 23.239 16.814C23.139 16.814 23.0193 16.8562 22.8953 16.9578C22.4089 17.3554 15.6278 21.893 15.0406 22.2578C14.6518 22.4994 14.0498 22.6734 13.425 22.6734C13.1586 22.6734 12.8889 22.6415 12.6297 22.5703C11.7273 22.3215 10.2001 21.8582 9.59373 21.6422C9.01053 21.4342 8.79841 21.2349 8.79841 20.8781C8.79841 20.3709 9.51433 20.0208 10.2687 19.7C11.0655 19.3616 24.8528 13.5067 25.9312 13.1187C26.4304 12.9379 26.8871 12.8281 27.2703 12.8281Z" fill="white"/>
</svg>
