<svg width="40" height="40" viewBox="0 0 40 40" fill="none" xmlns="http://www.w3.org/2000/svg">
<path d="M7.19995 3.19995C5.00034 3.19995 3.19995 5.00034 3.19995 7.19995V32.7999C3.19995 34.9996 5.00034 36.7999 7.19995 36.7999H32.7999C34.9996 36.7999 36.7999 34.9996 36.7999 32.7999V7.19995C36.7999 5.00034 34.9996 3.19995 32.7999 3.19995H7.19995ZM7.19995 4.79995H32.7999C34.1347 4.79995 35.1999 5.86516 35.1999 7.19995V32.7999C35.1999 34.1347 34.1347 35.1999 32.7999 35.1999H7.19995C5.86516 35.1999 4.79995 34.1347 4.79995 32.7999V7.19995C4.79995 5.86516 5.86516 4.79995 7.19995 4.79995ZM18.7171 12.7937C17.8711 12.7918 17.1168 12.839 16.4421 13.1703L16.4406 13.1718C16.1117 13.3339 15.8798 13.5397 15.6953 13.7843C15.603 13.9066 15.5084 14.0164 15.4578 14.2953C15.4324 14.4347 15.4182 14.6606 15.564 14.9046C15.7098 15.1487 16.003 15.2874 16.1906 15.3125C16.3209 15.3298 16.615 15.455 16.6421 15.4921L16.6437 15.4953C16.6437 15.4953 16.7578 15.7929 16.7906 16.0578C16.8234 16.3227 16.8218 16.5375 16.8218 16.5375C16.8215 16.5588 16.822 16.5802 16.8234 16.6015C16.8234 16.6015 16.8697 17.2956 16.839 18.0125C16.8268 18.2982 16.7898 18.5524 16.7515 18.7796C16.4666 18.4651 16.0468 17.8955 15.4406 16.8453C14.768 15.6795 14.2328 14.6343 14.2328 14.6343C14.2047 14.5433 14.1052 14.26 13.7171 13.975C13.2929 13.6623 12.8828 13.6156 12.8828 13.6156C12.8313 13.6053 12.779 13.6 12.7265 13.6L9.57339 13.6015C9.57339 13.6015 9.38433 13.5906 9.15776 13.6218C8.93119 13.6531 8.59002 13.6785 8.26089 14.0687L8.25933 14.0703C7.96518 14.4217 7.98297 14.8102 8.0187 15.0296C8.05443 15.2491 8.13433 15.4156 8.13433 15.4156C8.13587 15.4187 8.13743 15.4218 8.13901 15.425C8.13901 15.425 10.7181 20.8475 13.6328 24.0406C15.7493 26.359 17.9217 26.3984 19.714 26.3984H21.0515C21.393 26.3984 21.7018 26.385 22.0437 26.1859C22.3856 25.9867 22.6156 25.5019 22.6156 25.1656C22.6156 24.8132 22.6682 24.5361 22.7328 24.3937C22.7782 24.2935 22.8141 24.2575 22.8703 24.2281C22.8821 24.2356 22.8745 24.2312 22.9078 24.2546C23.0409 24.3483 23.2608 24.5618 23.5 24.8281C23.9782 25.3607 24.521 26.0912 25.25 26.5921C25.7722 26.9513 26.2655 27.1108 26.6406 27.1687C26.8756 27.205 27.0581 27.198 27.1875 27.1875L30.1749 27.1999C30.1927 27.2 30.2104 27.1995 30.2281 27.1984C30.2281 27.1984 30.7428 27.2044 31.2781 26.8843C31.5457 26.7243 31.8613 26.4208 31.964 25.9781C32.0667 25.5353 31.9376 25.0765 31.6859 24.6578V24.6562C31.7296 24.7287 31.6463 24.5797 31.5609 24.4406C31.4755 24.3014 31.3514 24.1139 31.1734 23.8812C30.8173 23.4159 30.2469 22.7647 29.3249 21.9062H29.3234C28.8551 21.4705 28.5389 21.1621 28.4093 20.9906C28.2797 20.8191 28.3222 20.9092 28.3312 20.8656C28.3491 20.7784 28.9111 19.9677 30.0546 18.4406C30.7497 17.5111 31.2376 16.8132 31.5593 16.2328C31.8811 15.6523 32.1131 15.1496 31.9515 14.5343L31.9499 14.5312C31.8782 14.2611 31.6824 14.0121 31.4812 13.8765C31.28 13.7409 31.0893 13.6878 30.9187 13.6546C30.5774 13.5882 30.2796 13.6 30.0031 13.6C29.4233 13.6 26.8507 13.6203 26.639 13.6203C26.3888 13.6203 25.9751 13.7341 25.7921 13.8437C25.3321 14.1206 25.1999 14.4843 25.1999 14.4843C25.1916 14.4997 25.1838 14.5153 25.1765 14.5312C25.1765 14.5312 24.6459 15.7079 23.9625 16.8703C23.2701 18.0492 22.7587 18.6116 22.4499 18.8718C22.4415 18.8255 22.4429 18.8631 22.4375 18.7984C22.4098 18.4692 22.4406 18.0142 22.4406 17.5703C22.4406 16.3747 22.5419 15.5379 22.4874 14.7984C22.4602 14.4286 22.3917 14.0474 22.1484 13.6968C21.905 13.3463 21.5001 13.1185 21.1 13.0218C20.8598 12.9639 20.5861 12.8133 19.5953 12.8031H19.5937C19.2907 12.8 18.9991 12.7943 18.7171 12.7937ZM19.5781 14.4031C20.4548 14.4121 20.2364 14.4603 20.7234 14.5781C20.8744 14.6146 20.8378 14.6144 20.8343 14.6093C20.8308 14.6043 20.8752 14.6868 20.8921 14.9171C20.9261 15.3779 20.8406 16.2939 20.8406 17.5703C20.8406 17.9183 20.7986 18.415 20.8421 18.9328C20.8857 19.4505 21.0141 20.115 21.6328 20.5156C21.926 20.7057 22.2666 20.7177 22.5578 20.6453C22.849 20.5729 23.1132 20.4221 23.3906 20.1999C23.9454 19.7557 24.5643 19.0059 25.3421 17.6812C26.0692 16.4446 26.598 15.2671 26.6156 15.2281C26.619 15.2253 26.6225 15.2234 26.6265 15.2203C26.6365 15.2204 26.6262 15.2203 26.639 15.2203C26.9377 15.2203 29.4629 15.2 30.0031 15.2C30.1292 15.2 30.1751 15.2076 30.275 15.2109C30.2478 15.3015 30.278 15.2437 30.1593 15.4578C29.9105 15.9067 29.4519 16.5739 28.7734 17.4812C27.6585 18.9701 26.9675 19.5535 26.764 20.5421C26.6623 21.0364 26.8529 21.5844 27.1328 21.9546C27.4126 22.3249 27.7658 22.6421 28.2343 23.0781C29.102 23.886 29.611 24.473 29.9031 24.8546C30.0491 25.0455 30.1412 25.1833 30.1984 25.2765C30.2556 25.3697 30.2415 25.3599 30.3156 25.4828C30.3644 25.5645 30.3464 25.5146 30.3546 25.539C30.2587 25.5661 30.1425 25.5986 30.1359 25.5999L27.1937 25.5875C27.1407 25.5874 27.0878 25.5927 27.0359 25.6031C27.0359 25.6031 27.0432 25.6117 26.8859 25.5875C26.7285 25.5632 26.4782 25.4951 26.1562 25.2734C25.7676 25.0063 25.2236 24.3529 24.6906 23.7593C24.4241 23.4625 24.1583 23.1775 23.8281 22.9453C23.4979 22.713 23.0037 22.4947 22.4703 22.6625C21.9165 22.8363 21.4854 23.2685 21.275 23.7328C21.1183 24.0783 21.1056 24.4393 21.0812 24.7984C21.0546 24.8004 21.0852 24.7984 21.0515 24.7984H19.714C17.8967 24.7984 16.6063 24.9241 14.814 22.9609C12.4032 20.3198 10.1944 15.9256 9.83433 15.2015L12.6093 15.2C12.6581 15.2187 12.7625 15.2579 12.7687 15.2625L12.7718 15.2656C12.6704 15.1914 12.7765 15.2953 12.7765 15.2953C12.7863 15.3192 12.7973 15.3427 12.8093 15.3656C12.8093 15.3656 13.3592 16.4398 14.0546 17.6453C14.7368 18.827 15.2339 19.5652 15.714 20.0531C15.9541 20.297 16.1964 20.4926 16.5203 20.6031C16.8441 20.7135 17.2624 20.673 17.5437 20.5187C18.1184 20.2041 18.1957 19.74 18.289 19.3343C18.3825 18.928 18.4197 18.4953 18.4375 18.0812C18.4719 17.2775 18.4232 16.582 18.4203 16.539C18.4204 16.5239 18.4241 16.2339 18.3781 15.8625C18.331 15.4821 18.2784 15.017 17.9343 14.5484L17.9328 14.5468C17.9304 14.5435 17.9274 14.5438 17.925 14.5406C18.3799 14.4753 18.7693 14.395 19.5781 14.4031ZM26.6359 15.1875L26.625 15.2125C26.6233 15.2134 26.6238 15.2113 26.6218 15.2125C26.6252 15.206 26.6359 15.1875 26.6359 15.1875Z" fill="white"/>
</svg>
