<svg width="40" height="40" viewBox="0 0 40 40" fill="none" xmlns="http://www.w3.org/2000/svg">
<path d="M20 1.59998C9.8476 1.59998 1.59998 9.8476 1.59998 20C1.59998 23.2633 2.49493 26.3087 3.98748 28.9672L1.62966 37.3843C1.59199 37.519 1.59029 37.6613 1.62473 37.7968C1.65916 37.9324 1.72853 38.0565 1.82591 38.1569C1.92329 38.2573 2.04529 38.3304 2.17974 38.3689C2.31419 38.4075 2.45639 38.4101 2.59216 38.3765L11.3687 36.2015C13.9477 37.5783 16.874 38.4 20 38.4C30.1523 38.4 38.4 30.1523 38.4 20C38.4 9.8476 30.1523 1.59998 20 1.59998ZM20 3.19998C29.2876 3.19998 36.8 10.7123 36.8 20C36.8 29.2876 29.2876 36.8 20 36.8C17.0224 36.8 14.2337 36.0237 11.8094 34.6672C11.632 34.5681 11.4237 34.5402 11.2265 34.589L3.5406 36.4937L5.60154 29.1406C5.63103 29.0367 5.63917 28.9279 5.62548 28.8207C5.61178 28.7136 5.57653 28.6103 5.52185 28.5172C4.04853 26.0189 3.19998 23.1121 3.19998 20C3.19998 10.7123 10.7123 3.19998 20 3.19998ZM13.314 10.4C12.8012 10.4 12.0688 10.5908 11.4672 11.239C11.1058 11.6284 9.59998 13.0956 9.59998 15.675C9.59998 18.3642 11.4651 20.6847 11.6906 20.9828H11.6922V20.9844C11.6708 20.9562 11.9784 21.4017 12.389 21.9359C12.7997 22.4701 13.3739 23.1717 14.0953 23.9312C15.5381 25.4503 17.5666 27.2059 20.0844 28.2797C21.2438 28.7734 22.1585 29.0715 22.8515 29.289C24.1359 29.6923 25.3056 29.631 26.1844 29.5015C26.8421 29.4047 27.5655 29.0889 28.2812 28.6359C28.997 28.183 29.6984 27.6198 30.0078 26.764C30.2294 26.1506 30.342 25.5837 30.3828 25.1172C30.4032 24.8839 30.4057 24.6781 30.3906 24.4875C30.3754 24.2969 30.3916 24.1509 30.214 23.8594C29.8416 23.2478 29.4198 23.2319 28.9797 23.014C28.7351 22.893 28.0389 22.553 27.3406 22.2203C26.6431 21.8879 26.0391 21.5935 25.6672 21.4609C25.4322 21.3764 25.1452 21.2547 24.7312 21.3015C24.3172 21.3484 23.9083 21.6471 23.6703 22C23.4446 22.3344 22.5363 23.4067 22.2594 23.7219C22.2557 23.7196 22.2797 23.7307 22.1703 23.6765C21.8278 23.507 21.4089 23.3629 20.789 23.0359C20.1692 22.7089 19.3938 22.2261 18.5453 21.4781V21.4765C17.2824 20.3647 16.3978 18.9689 16.1187 18.5C16.1375 18.4776 16.1165 18.5047 16.1562 18.4656L16.1578 18.464C16.443 18.1831 16.6958 17.8476 16.9094 17.6015C17.2122 17.2527 17.3458 16.9451 17.4906 16.6578C17.7791 16.0851 17.6185 15.455 17.4515 15.1234V15.1219C17.4631 15.1448 17.3612 14.9201 17.2515 14.6609C17.1415 14.401 17.0013 14.064 16.8515 13.7047C16.552 12.986 16.2176 12.1799 16.0187 11.7078V11.7062C15.7844 11.1501 15.4675 10.7495 15.0531 10.5562C14.6387 10.3629 14.2726 10.4179 14.2578 10.4172H14.2562C13.9605 10.4035 13.636 10.4 13.314 10.4ZM13.314 12C13.6225 12 13.9265 12.0037 14.1812 12.0156C14.4432 12.0287 14.4269 12.0297 14.3765 12.0062C14.3253 11.9824 14.3948 11.9746 14.5437 12.3281C14.7385 12.7904 15.0745 13.5994 15.375 14.3203C15.5252 14.6807 15.6658 15.019 15.7781 15.2844C15.8904 15.5497 15.9512 15.6978 16.0219 15.839V15.8406L16.0234 15.8422C16.0926 15.9788 16.0865 15.8913 16.0625 15.939C15.8937 16.2741 15.8707 16.3564 15.7 16.5531C15.44 16.8526 15.1747 17.1867 15.0344 17.325C14.9115 17.4456 14.6899 17.6336 14.5515 18.0015C14.413 18.37 14.4776 18.8756 14.7 19.2531C14.996 19.7557 15.9715 21.3434 17.4875 22.6781C18.4422 23.5197 19.3316 24.0767 20.0422 24.4515C20.7527 24.8264 21.3314 25.0453 21.4609 25.1094C21.7684 25.2615 22.1045 25.3797 22.4953 25.3328C22.8861 25.2859 23.223 25.0488 23.4375 24.8062L23.439 24.8047C23.7245 24.4811 24.5727 23.5126 24.9797 22.9156C24.9969 22.9217 24.9913 22.917 25.1265 22.9656V22.9672H25.1281C25.1899 22.9892 25.9634 23.3354 26.6531 23.664C27.3428 23.9927 28.0428 24.3343 28.2703 24.4469C28.5986 24.6093 28.7537 24.7151 28.7937 24.7156C28.7964 24.786 28.7992 24.8623 28.789 24.9781C28.761 25.2994 28.6751 25.7442 28.5031 26.2203C28.4188 26.4534 27.98 26.9341 27.4265 27.2844C26.8731 27.6346 26.1994 27.882 25.95 27.9187C25.1999 28.0292 24.3093 28.0696 23.3312 27.7625C22.653 27.5496 21.8074 27.2741 20.7125 26.8078C18.4918 25.8607 16.6044 24.2492 15.2562 22.8297C14.5821 22.1199 14.042 21.4592 13.6578 20.9594C13.2743 20.4604 13.1068 20.2008 12.9672 20.0172L12.9656 20.0156C12.7177 19.6878 11.2 17.5767 11.2 15.675C11.2 13.6624 12.1348 12.8731 12.6406 12.3281C12.9062 12.042 13.1965 12 13.314 12Z" fill="white"/>
</svg>
